<svg width="32" height="32" viewBox="0 0 32 32" fill="none" xmlns="http://www.w3.org/2000/svg">
<path d="M16 4.79999C19.944 4.79999 22.1808 7.31839 22.5056 10.3584H22.6048C25.1424 10.3584 27.2 12.3376 27.2 14.7792C27.2 17.2208 25.1424 19.2 22.6048 19.2L21.48 19.1984V19.2H21.432L19.9008 21.9856C19.7965 22.1676 19.6249 22.3014 19.4229 22.3581C19.221 22.4148 19.0048 22.3899 18.821 22.2888C18.6372 22.1876 18.5005 22.0184 18.4403 21.8174C18.3801 21.6165 18.4013 21.3999 18.4992 21.2144L19.608 19.1984H16.6992V19.2H16.6336L15.1008 21.9856C14.9965 22.1676 14.8249 22.3014 14.6229 22.3581C14.421 22.4148 14.2048 22.3899 14.021 22.2888C13.8372 22.1876 13.7005 22.0184 13.6403 21.8174C13.5801 21.6165 13.6013 21.3999 13.6992 21.2144L14.808 19.2H11.8336L10.3008 21.9856C10.1965 22.1676 10.0249 22.3014 9.82292 22.3581C9.62096 22.4148 9.4048 22.3899 9.22101 22.2888C9.03722 22.1876 8.90051 22.0184 8.84031 21.8174C8.78012 21.6165 8.80126 21.3999 8.89919 21.2144L10.008 19.2H9.39519C6.85759 19.2 4.79999 17.2208 4.79999 14.7792C4.79999 12.4272 6.70719 10.5056 9.11519 10.3664L9.49439 10.3584C9.82239 7.29759 12.056 4.79999 16 4.79999ZM12.3968 22.9056C12.5809 23.0109 12.7157 23.185 12.7715 23.3896C12.8273 23.5942 12.7996 23.8126 12.6944 23.9968L11.0944 26.7968C10.9865 26.9757 10.8129 27.1052 10.6107 27.1578C10.4086 27.2104 10.1938 27.1818 10.0125 27.0781C9.8311 26.9745 9.69746 26.804 9.64011 26.6032C9.58277 26.4023 9.60627 26.187 9.70559 26.0032L11.3056 23.2032C11.4109 23.0191 11.585 22.8843 11.7896 22.8285C11.9942 22.7727 12.2126 22.8004 12.3968 22.9056V22.9056ZM17.4944 23.9968C17.5937 23.813 17.6172 23.5977 17.5599 23.3968C17.5025 23.1959 17.3689 23.0255 17.1875 22.9218C17.0061 22.8182 16.7914 22.7896 16.5892 22.8422C16.3871 22.8948 16.2135 23.0243 16.1056 23.2032L14.5056 26.0032C14.4063 26.187 14.3828 26.4023 14.4401 26.6032C14.4975 26.804 14.6311 26.9745 14.8125 27.0781C14.9938 27.1818 15.2086 27.2104 15.4107 27.1578C15.6129 27.1052 15.7865 26.9757 15.8944 26.7968L17.4944 23.9968Z" fill="white"/>
</svg>
